<mxfile host="65bd71144e">
    <diagram id="si6YhU1oeEJseNU43w38" name="Page-1">
        <mxGraphModel dx="649" dy="569" grid="1" gridSize="10" guides="1" tooltips="1" connect="1" arrows="1" fold="1" page="1" pageScale="1" pageWidth="827" pageHeight="1169" math="0" shadow="0">
            <root>
                <mxCell id="0"/>
                <mxCell id="1" parent="0"/>
                <mxCell id="32" value="" style="group" vertex="1" connectable="0" parent="1">
                    <mxGeometry x="240" y="40" width="380" height="380" as="geometry"/>
                </mxCell>
                <mxCell id="2" value="" style="ellipse;whiteSpace=wrap;html=1;aspect=fixed;strokeWidth=5;" vertex="1" parent="32">
                    <mxGeometry width="380" height="380" as="geometry"/>
                </mxCell>
                <mxCell id="3" value="&lt;b&gt;&lt;font style=&quot;font-size: 24px;&quot;&gt;6&lt;/font&gt;&lt;/b&gt;" style="ellipse;whiteSpace=wrap;html=1;aspect=fixed;fillColor=#e3c800;fontColor=#000000;strokeColor=#B09500;" vertex="1" parent="32">
                    <mxGeometry x="233.42857142857142" y="141.14285714285714" width="32.57142857142857" height="32.57142857142857" as="geometry"/>
                </mxCell>
                <mxCell id="7" value="&lt;b&gt;&lt;font style=&quot;font-size: 24px;&quot;&gt;1&lt;/font&gt;&lt;/b&gt;" style="ellipse;whiteSpace=wrap;html=1;aspect=fixed;fillColor=#e3c800;fontColor=#000000;strokeColor=#B09500;" vertex="1" parent="32">
                    <mxGeometry x="59.71428571428571" y="108.57142857142858" width="32.57142857142857" height="32.57142857142857" as="geometry"/>
                </mxCell>
                <mxCell id="8" value="&lt;font size=&quot;1&quot; style=&quot;&quot;&gt;&lt;b style=&quot;font-size: 24px;&quot;&gt;8&lt;/b&gt;&lt;/font&gt;" style="ellipse;whiteSpace=wrap;html=1;aspect=fixed;fillColor=#e3c800;fontColor=#000000;strokeColor=#B09500;" vertex="1" parent="32">
                    <mxGeometry x="276.85714285714283" y="108.57142857142858" width="32.57142857142857" height="32.57142857142857" as="geometry"/>
                </mxCell>
                <mxCell id="12" value="2" style="ellipse;whiteSpace=wrap;html=1;aspect=fixed;fillColor=#e3c800;fontColor=#000000;strokeColor=#B09500;" vertex="1" parent="32">
                    <mxGeometry x="48.857142857142854" y="173.71428571428575" width="32.57142857142857" height="32.57142857142857" as="geometry"/>
                </mxCell>
                <mxCell id="15" value="&lt;font size=&quot;1&quot; style=&quot;&quot;&gt;&lt;b style=&quot;font-size: 24px;&quot;&gt;10&lt;/b&gt;&lt;/font&gt;" style="ellipse;whiteSpace=wrap;html=1;aspect=fixed;fillColor=#e3c800;fontColor=#000000;strokeColor=#B09500;" vertex="1" parent="32">
                    <mxGeometry x="81.42857142857142" y="238.85714285714283" width="65.14285714285714" height="65.14285714285714" as="geometry"/>
                </mxCell>
                <mxCell id="16" value="&lt;b&gt;&lt;font style=&quot;font-size: 24px;&quot;&gt;4&lt;/font&gt;&lt;/b&gt;" style="ellipse;whiteSpace=wrap;html=1;aspect=fixed;fillColor=#e3c800;fontColor=#000000;strokeColor=#B09500;" vertex="1" parent="32">
                    <mxGeometry x="173.71428571428575" y="206.28571428571428" width="32.57142857142857" height="32.57142857142857" as="geometry"/>
                </mxCell>
                <mxCell id="17" value="&lt;b&gt;&lt;font style=&quot;font-size: 24px;&quot;&gt;5&lt;/font&gt;&lt;/b&gt;" style="ellipse;whiteSpace=wrap;html=1;aspect=fixed;fillColor=#e3c800;fontColor=#000000;strokeColor=#B09500;" vertex="1" parent="32">
                    <mxGeometry x="173.71428571428575" y="304" width="32.57142857142857" height="32.57142857142857" as="geometry"/>
                </mxCell>
                <mxCell id="20" value="&lt;font size=&quot;1&quot; style=&quot;&quot;&gt;&lt;b style=&quot;font-size: 24px;&quot;&gt;7&lt;/b&gt;&lt;/font&gt;" style="ellipse;whiteSpace=wrap;html=1;aspect=fixed;fillColor=#e3c800;fontColor=#000000;strokeColor=#B09500;" vertex="1" parent="32">
                    <mxGeometry x="298.57142857142856" y="173.71428571428575" width="32.57142857142857" height="32.57142857142857" as="geometry"/>
                </mxCell>
                <mxCell id="21" value="3" style="ellipse;whiteSpace=wrap;html=1;aspect=fixed;fillColor=#e3c800;fontColor=#000000;strokeColor=#B09500;" vertex="1" parent="32">
                    <mxGeometry x="114" y="141.14285714285714" width="32.57142857142857" height="32.57142857142857" as="geometry"/>
                </mxCell>
                <mxCell id="27" value="&lt;b&gt;&lt;font style=&quot;font-size: 24px;&quot;&gt;9&lt;/font&gt;&lt;/b&gt;" style="ellipse;whiteSpace=wrap;html=1;aspect=fixed;fillColor=#e3c800;fontColor=#000000;strokeColor=#B09500;" vertex="1" parent="32">
                    <mxGeometry x="233.42857142857142" y="238.85714285714283" width="65.14285714285714" height="65.14285714285714" as="geometry"/>
                </mxCell>
                <mxCell id="31" value="" style="rounded=0;whiteSpace=wrap;html=1;strokeColor=#666666;fillColor=#f5f5f5;fontColor=#333333;" vertex="1" parent="32">
                    <mxGeometry x="130.28571428571428" y="32.57142857142857" width="119.42857142857142" height="21.71428571428572" as="geometry"/>
                </mxCell>
                <mxCell id="35" value="&lt;font size=&quot;1&quot; style=&quot;&quot;&gt;&lt;b style=&quot;font-size: 24px;&quot;&gt;3&lt;/b&gt;&lt;/font&gt;" style="ellipse;whiteSpace=wrap;html=1;aspect=fixed;fillColor=#e3c800;fontColor=#000000;strokeColor=#B09500;" vertex="1" parent="32">
                    <mxGeometry x="114" y="141.14285714285717" width="32.57142857142857" height="32.57142857142857" as="geometry"/>
                </mxCell>
                <mxCell id="36" value="&lt;b&gt;&lt;font style=&quot;font-size: 24px;&quot;&gt;2&lt;/font&gt;&lt;/b&gt;" style="ellipse;whiteSpace=wrap;html=1;aspect=fixed;fillColor=#e3c800;fontColor=#000000;strokeColor=#B09500;" vertex="1" parent="32">
                    <mxGeometry x="48.85714285714285" y="173.71428571428575" width="32.57142857142857" height="32.57142857142857" as="geometry"/>
                </mxCell>
                <mxCell id="57" value="" style="group" vertex="1" connectable="0" parent="1">
                    <mxGeometry x="370" y="470" width="130" height="200" as="geometry"/>
                </mxCell>
                <mxCell id="38" value="" style="shape=mxgraph.electrical.electro-mechanical.pushbutton;aspect=fixed;elSwitchState=on;strokeWidth=5;fontSize=24;" vertex="1" parent="57">
                    <mxGeometry y="90" width="130" height="34.67" as="geometry"/>
                </mxCell>
                <mxCell id="39" value="" style="shape=mxgraph.electrical.electro-mechanical.pushbutton;aspect=fixed;elSwitchState=on;strokeWidth=5;fontSize=24;" vertex="1" parent="57">
                    <mxGeometry y="140" width="130" height="34.67" as="geometry"/>
                </mxCell>
                <mxCell id="41" value="" style="endArrow=none;dashed=1;html=1;fontSize=24;strokeWidth=4;" edge="1" parent="57">
                    <mxGeometry width="50" height="50" relative="1" as="geometry">
                        <mxPoint x="66" y="200" as="sourcePoint"/>
                        <mxPoint x="66" y="60" as="targetPoint"/>
                    </mxGeometry>
                </mxCell>
                <mxCell id="42" value="" style="shape=or;whiteSpace=wrap;html=1;strokeWidth=5;fontSize=24;direction=north;fillColor=#f5f5f5;fontColor=#333333;strokeColor=#666666;" vertex="1" parent="57">
                    <mxGeometry x="47.66999999999996" y="40" width="34.67" height="20" as="geometry"/>
                </mxCell>
                <mxCell id="43" value="&lt;font style=&quot;font-size: 20px;&quot;&gt;EMG&lt;/font&gt;" style="text;html=1;align=center;verticalAlign=middle;resizable=0;points=[];autosize=1;strokeColor=none;fillColor=none;fontSize=24;" vertex="1" parent="57">
                    <mxGeometry x="30" width="70" height="40" as="geometry"/>
                </mxCell>
                <mxCell id="60" value="" style="endArrow=none;html=1;strokeWidth=4;fontSize=20;entryX=0;entryY=0.8;entryDx=0;entryDy=0;fillColor=#e3c800;strokeColor=#B09500;" edge="1" parent="1" target="38">
                    <mxGeometry width="50" height="50" relative="1" as="geometry">
                        <mxPoint x="270" y="588" as="sourcePoint"/>
                        <mxPoint x="370" y="590" as="targetPoint"/>
                    </mxGeometry>
                </mxCell>
                <mxCell id="61" value="" style="endArrow=none;html=1;strokeWidth=4;fontSize=20;entryX=0;entryY=0.8;entryDx=0;entryDy=0;fillColor=#e3c800;strokeColor=#B09500;" edge="1" parent="1" target="39">
                    <mxGeometry width="50" height="50" relative="1" as="geometry">
                        <mxPoint x="270" y="638" as="sourcePoint"/>
                        <mxPoint x="370" y="629.9960000000001" as="targetPoint"/>
                    </mxGeometry>
                </mxCell>
                <mxCell id="62" value="" style="endArrow=none;html=1;strokeWidth=4;fontSize=20;fillColor=#e3c800;strokeColor=#B09500;exitX=1;exitY=0.8;exitDx=0;exitDy=0;" edge="1" parent="1" source="38">
                    <mxGeometry width="50" height="50" relative="1" as="geometry">
                        <mxPoint x="510.0000000000001" y="590.26" as="sourcePoint"/>
                        <mxPoint x="610" y="588" as="targetPoint"/>
                    </mxGeometry>
                </mxCell>
                <mxCell id="63" value="" style="endArrow=none;html=1;strokeWidth=4;fontSize=20;fillColor=#e3c800;strokeColor=#B09500;exitX=1;exitY=0.8;exitDx=0;exitDy=0;" edge="1" parent="1" source="39">
                    <mxGeometry width="50" height="50" relative="1" as="geometry">
                        <mxPoint x="520" y="640" as="sourcePoint"/>
                        <mxPoint x="610" y="638" as="targetPoint"/>
                    </mxGeometry>
                </mxCell>
                <mxCell id="64" value="&lt;b&gt;&lt;font color=&quot;#ffff00&quot; style=&quot;font-size: 21px;&quot;&gt;4&lt;/font&gt;&lt;/b&gt;" style="text;html=1;align=center;verticalAlign=middle;resizable=0;points=[];autosize=1;strokeColor=none;fillColor=none;fontSize=20;" vertex="1" parent="1">
                    <mxGeometry x="580" y="540" width="40" height="40" as="geometry"/>
                </mxCell>
                <mxCell id="65" value="2" style="text;html=1;align=center;verticalAlign=middle;resizable=0;points=[];autosize=1;strokeColor=none;fillColor=none;fontSize=21;fontColor=#FFFF00;" vertex="1" parent="1">
                    <mxGeometry x="260" y="546" width="40" height="40" as="geometry"/>
                </mxCell>
                <mxCell id="66" value="3" style="text;html=1;align=center;verticalAlign=middle;resizable=0;points=[];autosize=1;strokeColor=none;fillColor=none;fontSize=21;fontColor=#FFFF00;" vertex="1" parent="1">
                    <mxGeometry x="260" y="598" width="40" height="40" as="geometry"/>
                </mxCell>
                <mxCell id="67" value="5" style="text;html=1;align=center;verticalAlign=middle;resizable=0;points=[];autosize=1;strokeColor=none;fillColor=none;fontSize=21;fontColor=#FFFF00;" vertex="1" parent="1">
                    <mxGeometry x="580" y="600" width="40" height="40" as="geometry"/>
                </mxCell>
                <mxCell id="72" value="" style="group" vertex="1" connectable="0" parent="1">
                    <mxGeometry x="280.75" y="699" width="331.25" height="120" as="geometry"/>
                </mxCell>
                <mxCell id="50" value="" style="group" vertex="1" connectable="0" parent="72">
                    <mxGeometry x="100" width="112.5" height="120" as="geometry"/>
                </mxCell>
                <mxCell id="49" value="&lt;font style=&quot;font-size: 20px;&quot;&gt;BTN1&lt;/font&gt;" style="text;html=1;align=center;verticalAlign=middle;resizable=0;points=[];autosize=1;strokeColor=none;fillColor=none;fontSize=24;" vertex="1" parent="50">
                    <mxGeometry x="21.25" width="70" height="40" as="geometry"/>
                </mxCell>
                <mxCell id="45" value="" style="shape=mxgraph.electrical.electro-mechanical.singleSwitch;aspect=fixed;elSwitchState=off;strokeWidth=5;fontSize=24;" vertex="1" parent="50">
                    <mxGeometry y="90" width="112.5" height="30" as="geometry"/>
                </mxCell>
                <mxCell id="46" value="" style="endArrow=none;dashed=1;html=1;fontSize=24;strokeWidth=4;" edge="1" parent="50">
                    <mxGeometry width="50" height="50" relative="1" as="geometry">
                        <mxPoint x="56" y="90" as="sourcePoint"/>
                        <mxPoint x="56" y="50" as="targetPoint"/>
                    </mxGeometry>
                </mxCell>
                <mxCell id="47" value="" style="endArrow=none;html=1;strokeWidth=4;fontSize=24;" edge="1" parent="50">
                    <mxGeometry width="50" height="50" relative="1" as="geometry">
                        <mxPoint x="36.25" y="47" as="sourcePoint"/>
                        <mxPoint x="76.25" y="47" as="targetPoint"/>
                    </mxGeometry>
                </mxCell>
                <mxCell id="68" value="" style="endArrow=none;html=1;strokeWidth=4;fontSize=20;entryX=0;entryY=0.8;entryDx=0;entryDy=0;fillColor=#e3c800;strokeColor=#B09500;" edge="1" parent="72" target="45">
                    <mxGeometry width="50" height="50" relative="1" as="geometry">
                        <mxPoint y="114.25999999999999" as="sourcePoint"/>
                        <mxPoint x="100" y="113.9960000000001" as="targetPoint"/>
                    </mxGeometry>
                </mxCell>
                <mxCell id="69" value="2" style="edgeLabel;html=1;align=center;verticalAlign=middle;resizable=0;points=[];fontSize=21;fontColor=#FFFF00;" vertex="1" connectable="0" parent="68">
                    <mxGeometry x="-0.898" y="-1" relative="1" as="geometry">
                        <mxPoint x="5" y="-25" as="offset"/>
                    </mxGeometry>
                </mxCell>
                <mxCell id="70" value="" style="endArrow=none;html=1;strokeWidth=4;fontSize=20;fillColor=#e3c800;strokeColor=#B09500;exitX=1;exitY=0.8;exitDx=0;exitDy=0;" edge="1" parent="72" source="45">
                    <mxGeometry width="50" height="50" relative="1" as="geometry">
                        <mxPoint x="212.5" y="119.9960000000001" as="sourcePoint"/>
                        <mxPoint x="321.25" y="114" as="targetPoint"/>
                    </mxGeometry>
                </mxCell>
                <mxCell id="71" value="6" style="text;html=1;align=center;verticalAlign=middle;resizable=0;points=[];autosize=1;strokeColor=none;fillColor=none;fontSize=21;fontColor=#FFFF00;" vertex="1" parent="72">
                    <mxGeometry x="291.25" y="80" width="40" height="40" as="geometry"/>
                </mxCell>
                <mxCell id="80" value="" style="group" vertex="1" connectable="0" parent="1">
                    <mxGeometry x="277" y="889" width="335" height="115" as="geometry"/>
                </mxCell>
                <mxCell id="58" value="" style="group" vertex="1" connectable="0" parent="80">
                    <mxGeometry x="110" width="100" height="115" as="geometry"/>
                </mxCell>
                <mxCell id="55" value="" style="group" vertex="1" connectable="0" parent="58">
                    <mxGeometry y="45" width="100" height="70" as="geometry"/>
                </mxCell>
                <mxCell id="51" value="" style="pointerEvents=1;verticalLabelPosition=bottom;shadow=0;dashed=0;align=center;html=1;verticalAlign=top;shape=mxgraph.electrical.electro-mechanical.relay_coil_2;strokeWidth=5;fontSize=24;" vertex="1" parent="55">
                    <mxGeometry width="100" height="70" as="geometry"/>
                </mxCell>
                <mxCell id="52" value="" style="endArrow=none;html=1;strokeWidth=4;fontSize=24;entryX=0.275;entryY=0.107;entryDx=0;entryDy=0;entryPerimeter=0;" edge="1" parent="55">
                    <mxGeometry width="50" height="50" relative="1" as="geometry">
                        <mxPoint x="72" y="59" as="sourcePoint"/>
                        <mxPoint x="27.5" y="6.4900000000002365" as="targetPoint"/>
                    </mxGeometry>
                </mxCell>
                <mxCell id="54" value="" style="endArrow=none;html=1;strokeWidth=4;fontSize=24;" edge="1" parent="55">
                    <mxGeometry width="50" height="50" relative="1" as="geometry">
                        <mxPoint x="25" y="59" as="sourcePoint"/>
                        <mxPoint x="75" y="9" as="targetPoint"/>
                    </mxGeometry>
                </mxCell>
                <mxCell id="56" value="&lt;font style=&quot;font-size: 20px;&quot;&gt;LAMP&lt;/font&gt;" style="text;html=1;align=center;verticalAlign=middle;resizable=0;points=[];autosize=1;strokeColor=none;fillColor=none;fontSize=24;" vertex="1" parent="58">
                    <mxGeometry x="10" y="-1" width="80" height="40" as="geometry"/>
                </mxCell>
                <mxCell id="74" value="" style="endArrow=none;html=1;strokeWidth=4;fontSize=20;fillColor=#e3c800;strokeColor=#B09500;entryX=0;entryY=0.5;entryDx=0;entryDy=0;entryPerimeter=0;" edge="1" parent="80">
                    <mxGeometry width="50" height="50" relative="1" as="geometry">
                        <mxPoint y="79.25999999999999" as="sourcePoint"/>
                        <mxPoint x="110" y="79.00000000000045" as="targetPoint"/>
                    </mxGeometry>
                </mxCell>
                <mxCell id="76" value="1" style="edgeLabel;html=1;align=center;verticalAlign=middle;resizable=0;points=[];fontSize=21;fontColor=#FFFF00;" vertex="1" connectable="0" parent="74">
                    <mxGeometry x="-0.831" y="4" relative="1" as="geometry">
                        <mxPoint x="315" y="-19" as="offset"/>
                    </mxGeometry>
                </mxCell>
                <mxCell id="75" value="" style="endArrow=none;html=1;strokeWidth=4;fontSize=20;fillColor=#e3c800;strokeColor=#B09500;entryX=0;entryY=0.5;entryDx=0;entryDy=0;entryPerimeter=0;exitX=1;exitY=0.5;exitDx=0;exitDy=0;exitPerimeter=0;" edge="1" parent="80">
                    <mxGeometry width="50" height="50" relative="1" as="geometry">
                        <mxPoint x="210" y="79.00000000000045" as="sourcePoint"/>
                        <mxPoint x="335" y="79" as="targetPoint"/>
                    </mxGeometry>
                </mxCell>
                <mxCell id="77" value="7" style="edgeLabel;html=1;align=center;verticalAlign=middle;resizable=0;points=[];fontSize=21;fontColor=#FFFF00;" vertex="1" connectable="0" parent="75">
                    <mxGeometry x="0.741" y="-2" relative="1" as="geometry">
                        <mxPoint x="-313" y="-24" as="offset"/>
                    </mxGeometry>
                </mxCell>
                <mxCell id="78" value="X1 +" style="text;html=1;align=center;verticalAlign=middle;resizable=0;points=[];autosize=1;strokeColor=none;fillColor=none;fontSize=21;fontColor=#FFFF00;" vertex="1" parent="80">
                    <mxGeometry x="60" y="36.5" width="70" height="40" as="geometry"/>
                </mxCell>
                <mxCell id="79" value="X2 -" style="text;html=1;align=center;verticalAlign=middle;resizable=0;points=[];autosize=1;strokeColor=none;fillColor=none;fontSize=21;fontColor=#FFFF00;" vertex="1" parent="80">
                    <mxGeometry x="215" y="36.5" width="60" height="40" as="geometry"/>
                </mxCell>
                <mxCell id="82" value="" style="rounded=0;whiteSpace=wrap;html=1;strokeColor=#B09500;strokeWidth=5;fontSize=21;fontColor=#FFFF00;" vertex="1" parent="1">
                    <mxGeometry x="560" y="984" width="90" height="20" as="geometry"/>
                </mxCell>
                <mxCell id="83" value="" style="rounded=0;whiteSpace=wrap;html=1;strokeColor=#666666;strokeWidth=5;fontSize=21;fontColor=#333333;fillColor=#f5f5f5;" vertex="1" parent="1">
                    <mxGeometry x="240" y="984" width="90" height="20" as="geometry"/>
                </mxCell>
                <mxCell id="85" value="" style="rounded=0;whiteSpace=wrap;html=1;strokeColor=#001DBC;strokeWidth=5;fontSize=21;fontColor=#ffffff;fillColor=#0050ef;" vertex="1" parent="1">
                    <mxGeometry x="240" y="830" width="90" height="20" as="geometry"/>
                </mxCell>
                <mxCell id="86" value="" style="rounded=0;whiteSpace=wrap;html=1;strokeColor=#001DBC;strokeWidth=5;fontSize=21;fontColor=#ffffff;fillColor=#0050ef;" vertex="1" parent="1">
                    <mxGeometry x="235" y="526" width="90" height="20" as="geometry"/>
                </mxCell>
                <mxCell id="87" value="" style="rounded=0;whiteSpace=wrap;html=1;strokeColor=#666666;strokeWidth=5;fontSize=21;fillColor=#f5f5f5;gradientColor=#b3b3b3;" vertex="1" parent="1">
                    <mxGeometry x="540" y="830" width="90" height="20" as="geometry"/>
                </mxCell>
                <mxCell id="88" value="" style="rounded=0;whiteSpace=wrap;html=1;strokeColor=#B09500;strokeWidth=5;fontSize=21;fontColor=#000000;fillColor=#e3c800;" vertex="1" parent="1">
                    <mxGeometry x="240" y="660" width="90" height="20" as="geometry"/>
                </mxCell>
                <mxCell id="89" value="" style="rounded=0;whiteSpace=wrap;html=1;strokeColor=#2D7600;strokeWidth=5;fontSize=21;fontColor=#ffffff;fillColor=#60a917;" vertex="1" parent="1">
                    <mxGeometry x="570" y="660" width="90" height="20" as="geometry"/>
                </mxCell>
                <mxCell id="90" value="" style="rounded=0;whiteSpace=wrap;html=1;strokeColor=#3700CC;strokeWidth=5;fontSize=21;fontColor=#ffffff;fillColor=#6a00ff;" vertex="1" parent="1">
                    <mxGeometry x="560" y="526" width="90" height="20" as="geometry"/>
                </mxCell>
            </root>
        </mxGraphModel>
    </diagram>
</mxfile>